<?xml version="1.0" encoding="utf-8"?>
<!-- Generator: Adobe Illustrator 24.1.0, SVG Export Plug-In . SVG Version: 6.00 Build 0)  -->
<svg version="1.1" id="Layer_1" xmlns="http://www.w3.org/2000/svg" xmlns:xlink="http://www.w3.org/1999/xlink" x="0px" y="0px"
	 viewBox="0 0 1674.01 430.52" style="enable-background:new 0 0 1674.01 430.52;" xml:space="preserve">
<style type="text/css">
	.st0{fill:#019875;}
	.st1{fill:#51F2B8;}
	.st2{fill:#0CBF90;}
	.st3{fill:#37D196;}
	.st4{fill:#08BA8B;}
	.st5{fill:#1BC18A;}
	.st6{fill:#038261;}
	.st7{fill:#07996B;}
</style>
<g>
	<g>
		<path class="st0" d="M636.29,241c-2.44,2.35-5.54,3.52-9.29,3.52H520.08c2.06,13.13,8.02,23.73,17.87,31.8
			c9.85,8.07,21.9,12.1,36.16,12.1c5.63,0,11.49-1.03,17.59-3.1c6.09-2.06,11.11-4.59,15.05-7.6c2.63-2.06,5.72-3.1,9.29-3.1
			c3.56,0,6.38,0.94,8.44,2.81c3.38,2.81,5.07,6.01,5.07,9.57c0,3.38-1.51,6.19-4.5,8.44c-6.38,5.07-14.31,9.19-23.78,12.38
			c-9.47,3.19-18.53,4.78-27.15,4.78c-15.38,0-29.17-3.33-41.36-9.99c-12.2-6.66-21.72-15.9-28.56-27.72
			c-6.85-11.82-10.27-25.23-10.27-40.24s3.24-28.47,9.71-40.38c6.47-11.91,15.48-21.2,27.01-27.86c11.54-6.66,24.62-9.99,39.25-9.99
			c14.44,0,26.92,3.19,37.42,9.57c10.5,6.38,18.57,15.29,24.2,26.73c5.63,11.44,8.44,24.58,8.44,39.39
			C639.95,235.7,638.72,238.65,636.29,241z M536.54,191.9c-8.54,7.5-13.93,17.54-16.18,30.11h93.7
			c-1.69-12.57-6.38-22.6-14.07-30.11c-7.69-7.5-17.73-11.26-30.11-11.26C556.19,180.64,545.07,184.4,536.54,191.9z"/>
		<path class="st0" d="M875.05,172.2c10.03,10.69,15.05,25.61,15.05,44.74v80.48c0,4.13-1.31,7.55-3.94,10.27
			c-2.63,2.72-6.1,4.08-10.41,4.08c-4.13,0-7.55-1.36-10.27-4.08c-2.72-2.72-4.08-6.14-4.08-10.27v-80.48
			c0-11.44-2.86-20.12-8.58-26.03c-5.72-5.91-13.36-8.86-22.93-8.86c-9.76,0-17.77,3.37-24.06,10.13
			c-6.29,6.75-9.43,15.38-9.43,25.89v79.35c0,4.13-1.32,7.55-3.94,10.27c-2.63,2.72-6.1,4.08-10.41,4.08
			c-4.13,0-7.55-1.36-10.27-4.08c-2.72-2.72-4.08-6.14-4.08-10.27v-80.48c0-11.44-2.86-20.12-8.58-26.03
			c-5.72-5.91-13.37-8.86-22.93-8.86c-9.95,0-18.06,3.37-24.34,10.13c-6.29,6.75-9.43,15.38-9.43,25.89v79.35
			c0,4.13-1.31,7.55-3.94,10.27c-2.63,2.72-6.1,4.08-10.41,4.08c-4.13,0-7.55-1.36-10.27-4.08c-2.72-2.72-4.08-6.14-4.08-10.27
			V172.2c0-4.31,1.36-7.78,4.08-10.41c2.72-2.62,6.14-3.94,10.27-3.94c4.12,0,7.5,1.27,10.13,3.8c2.62,2.53,4.03,5.87,4.22,9.99
			c4.88-4.88,10.69-8.67,17.45-11.39c6.75-2.72,14.07-4.08,21.95-4.08c9.57,0,18.15,1.93,25.75,5.77
			c7.6,3.85,13.83,9.33,18.71,16.46c5.63-6.94,12.66-12.38,21.1-16.32c8.44-3.94,17.82-5.91,28.14-5.91
			C851.83,156.16,865.01,161.5,875.05,172.2z"/>
		<path class="st0" d="M1069.35,241c-2.44,2.35-5.54,3.52-9.29,3.52H953.13c2.06,13.13,8.02,23.73,17.87,31.8
			c9.85,8.07,21.9,12.1,36.16,12.1c5.63,0,11.49-1.03,17.59-3.1c6.09-2.06,11.11-4.59,15.05-7.6c2.63-2.06,5.72-3.1,9.29-3.1
			c3.56,0,6.38,0.94,8.44,2.81c3.38,2.81,5.07,6.01,5.07,9.57c0,3.38-1.51,6.19-4.5,8.44c-6.38,5.07-14.31,9.19-23.78,12.38
			c-9.47,3.19-18.53,4.78-27.15,4.78c-15.38,0-29.17-3.33-41.36-9.99c-12.2-6.66-21.72-15.9-28.56-27.72
			c-6.85-11.82-10.27-25.23-10.27-40.24s3.24-28.47,9.71-40.38c6.47-11.91,15.48-21.2,27.01-27.86c11.54-6.66,24.62-9.99,39.25-9.99
			c14.44,0,26.92,3.19,37.42,9.57c10.5,6.38,18.57,15.29,24.2,26.73c5.63,11.44,8.44,24.58,8.44,39.39
			C1073,235.7,1071.78,238.65,1069.35,241z M969.59,191.9c-8.54,7.5-13.93,17.54-16.18,30.11h93.7
			c-1.69-12.57-6.38-22.6-14.07-30.11c-7.69-7.5-17.73-11.26-30.11-11.26C989.24,180.64,978.12,184.4,969.59,191.9z"/>
		<path class="st0" d="M1205.54,160.38c5.63,3,8.44,6.75,8.44,11.25c0,1.32-0.1,2.25-0.28,2.82c-1.69,6.01-5.44,9-11.26,9
			c-0.94,0-2.35-0.18-4.22-0.56c-7.51-1.31-13.6-1.97-18.29-1.97c-13.51,0-24.39,3.1-32.64,9.28c-8.26,6.19-12.38,14.54-12.38,25.05
			v82.16c0,4.5-1.17,7.98-3.52,10.41c-2.35,2.44-5.87,3.66-10.55,3.66c-4.5,0-7.98-1.17-10.41-3.52c-2.44-2.34-3.66-5.86-3.66-10.55
			V171.63c0-4.5,1.22-7.97,3.66-10.41c2.43-2.43,5.91-3.66,10.41-3.66c9.38,0,14.07,4.69,14.07,14.07v5.35
			c5.63-6.56,12.56-11.72,20.82-15.48c8.25-3.75,17.07-5.63,26.45-5.63C1192.12,155.88,1199.91,157.38,1205.54,160.38z"/>
		<path class="st0" d="M1338.49,166.71c11.72,6.85,21.01,16.23,27.86,28.14c6.85,11.92,10.27,25.19,10.27,39.82v62.75
			c0,4.13-1.36,7.55-4.08,10.27c-2.72,2.72-6.15,4.08-10.27,4.08c-4.13,0-7.55-1.36-10.27-4.08c-2.72-2.72-4.08-6.14-4.08-10.27V287
			c-6.57,8.07-14.54,14.35-23.92,18.85c-9.38,4.5-19.51,6.75-30.39,6.75c-13.51,0-25.75-3.38-36.72-10.13
			c-10.98-6.75-19.61-16.08-25.89-28c-6.29-11.91-9.43-25.18-9.43-39.81c0-14.63,3.38-27.9,10.13-39.82
			c6.75-11.91,16.08-21.29,28-28.14c11.91-6.85,25.09-10.27,39.54-10.27C1313.68,156.44,1326.77,159.86,1338.49,166.71z
			 M1324.71,280.39c7.6-4.59,13.55-10.88,17.87-18.85c4.31-7.97,6.47-16.93,6.47-26.87c0-9.94-2.16-18.95-6.47-27.02
			c-4.32-8.06-10.27-14.39-17.87-18.99c-7.6-4.59-16.09-6.89-25.47-6.89c-9.38,0-17.87,2.3-25.47,6.89
			c-7.6,4.6-13.6,10.93-18.01,18.99c-4.41,8.07-6.61,17.07-6.61,27.02c0,9.95,2.2,18.9,6.61,26.87
			c4.41,7.98,10.41,14.26,18.01,18.85c7.6,4.6,16.08,6.9,25.47,6.9C1308.62,287.29,1317.11,284.99,1324.71,280.39z"/>
		<path class="st0" d="M1414.89,95.66c2.62-2.62,6-3.94,10.13-3.94c4.12,0,7.5,1.32,10.13,3.94c2.63,2.63,3.94,6.01,3.94,10.13
			v153.64c0,6.94,1.31,12.66,3.94,17.17c2.62,4.5,6,6.75,10.13,6.75h7.04c3.75,0,6.8,1.32,9.14,3.94c2.34,2.63,3.52,6.01,3.52,10.13
			c0,4.13-1.79,7.51-5.35,10.13c-3.57,2.63-8.16,3.94-13.79,3.94h-0.56c-8.07,0-15.33-2.2-21.81-6.61
			c-6.47-4.4-11.49-10.6-15.05-18.57c-3.57-7.97-5.35-16.93-5.35-26.87V105.79C1410.95,101.66,1412.26,98.29,1414.89,95.66z"/>
		<path class="st0" d="M1632.96,95.66c2.62,2.63,3.94,6.1,3.94,10.41v128.31c0,14.63-3.42,27.91-10.27,39.82
			c-6.85,11.92-16.14,21.29-27.86,28.14c-11.73,6.85-24.81,10.27-39.25,10.27c-14.45,0-27.62-3.42-39.54-10.27
			c-11.92-6.85-21.24-16.22-28-28.14c-6.75-11.91-10.13-25.19-10.13-39.82c0-14.63,3.14-27.9,9.43-39.82
			c6.28-11.91,14.91-21.24,25.89-28s23.21-10.13,36.72-10.13c10.88,0,21.01,2.25,30.39,6.75c9.38,4.5,17.35,10.79,23.92,18.85
			v-75.98c0-4.31,1.36-7.78,4.08-10.41c2.72-2.62,6.14-3.94,10.27-3.94C1626.86,91.72,1630.33,93.03,1632.96,95.66z M1584.99,280.39
			c7.6-4.59,13.55-10.93,17.87-18.99c4.31-8.06,6.47-17.07,6.47-27.01c0-9.94-2.16-18.9-6.47-26.87
			c-4.32-7.97-10.27-14.25-17.87-18.85c-7.6-4.59-16.09-6.89-25.47-6.89c-9.38,0-17.87,2.3-25.47,6.89
			c-7.6,4.6-13.6,10.88-18.01,18.85c-4.41,7.98-6.61,16.93-6.61,26.87c0,9.95,2.2,18.95,6.61,27.01
			c4.41,8.07,10.41,14.4,18.01,18.99c7.6,4.6,16.08,6.9,25.47,6.9C1568.9,287.29,1577.39,284.99,1584.99,280.39z"/>
	</g>
	<g>
		<polygon class="st1" points="343.34,38.46 139.19,38.46 191.35,168.46 		"/>
		<polygon class="st2" points="297.8,263.3 343.34,38.46 191.35,168.46 		"/>
		<polygon class="st3" points="139.19,38.46 37.11,215.26 191.35,168.46 		"/>
		<polygon class="st0" points="445.41,215.26 343.34,38.46 297.8,263.3 		"/>
		<polygon class="st4" points="139.19,392.06 343.34,392.06 297.8,263.3 		"/>
		<polygon class="st5" points="37.11,215.26 139.19,392.06 191.35,168.46 		"/>
		<polygon class="st6" points="297.8,263.3 343.34,392.06 445.41,215.26 		"/>
		<polygon class="st7" points="191.35,168.46 139.19,392.06 297.8,263.3 		"/>
	</g>
</g>
</svg>
