<?xml version="1.0" encoding="utf-8"?>
<!-- Generator: Adobe Illustrator 24.1.0, SVG Export Plug-In . SVG Version: 6.00 Build 0)  -->
<svg version="1.1" id="Layer_1" xmlns="http://www.w3.org/2000/svg" xmlns:xlink="http://www.w3.org/1999/xlink" x="0px" y="0px"
	 viewBox="0 0 1674.01 430.52" style="enable-background:new 0 0 1674.01 430.52;" xml:space="preserve">
<style type="text/css">
	.st0{fill:#019875;}
	.st1{fill:#51F2B8;}
	.st2{fill:#0CBF90;}
	.st3{fill:#37D196;}
	.st4{fill:#08BA8B;}
	.st5{fill:#1BC18A;}
	.st6{fill:#038261;}
	.st7{fill:#07996B;}
</style>
<g>
	<g>
		<path class="st0" d="M578.82,238.67c-2.22,2.13-5.04,3.2-8.45,3.2h-97.26c1.87,11.94,7.29,21.58,16.25,28.92
			c8.96,7.34,19.92,11.01,32.89,11.01c5.12,0,10.45-0.94,16-2.82c5.54-1.88,10.11-4.18,13.69-6.91c2.39-1.88,5.2-2.82,8.45-2.82
			c3.24,0,5.8,0.86,7.68,2.56c3.07,2.56,4.61,5.46,4.61,8.7c0,3.07-1.37,5.63-4.1,7.68c-5.8,4.61-13.01,8.36-21.63,11.26
			c-8.62,2.9-16.85,4.35-24.7,4.35c-13.99,0-26.53-3.03-37.62-9.08c-11.09-6.05-19.75-14.46-25.98-25.21
			c-6.23-10.75-9.34-22.95-9.34-36.6c0-13.65,2.94-25.89,8.83-36.73c5.89-10.83,14.08-19.28,24.57-25.34
			c10.49-6.05,22.4-9.08,35.7-9.08c13.14,0,24.48,2.9,34.04,8.7c9.55,5.8,16.89,13.91,22.01,24.32c5.12,10.41,7.68,22.35,7.68,35.83
			C582.15,233.85,581.03,236.54,578.82,238.67z M488.09,194.01c-7.77,6.83-12.67,15.96-14.72,27.38h85.23
			c-1.53-11.43-5.8-20.56-12.8-27.38c-7-6.82-16.12-10.24-27.38-10.24C505.96,183.77,495.85,187.19,488.09,194.01z"/>
		<path class="st0" d="M795.98,176.09c9.13,9.73,13.69,23.29,13.69,40.69v73.2c0,3.76-1.19,6.87-3.58,9.34
			c-2.39,2.48-5.55,3.71-9.47,3.71c-3.75,0-6.87-1.24-9.34-3.71c-2.48-2.47-3.71-5.59-3.71-9.34v-73.2c0-10.4-2.6-18.3-7.81-23.67
			c-5.21-5.37-12.16-8.06-20.86-8.06c-8.87,0-16.17,3.07-21.88,9.21c-5.72,6.14-8.57,13.99-8.57,23.55v72.17
			c0,3.76-1.2,6.87-3.58,9.34c-2.39,2.48-5.55,3.71-9.47,3.71c-3.75,0-6.87-1.24-9.34-3.71c-2.47-2.47-3.71-5.59-3.71-9.34v-73.2
			c0-10.4-2.6-18.3-7.81-23.67c-5.21-5.37-12.16-8.06-20.86-8.06c-9.05,0-16.42,3.07-22.14,9.21c-5.72,6.14-8.57,13.99-8.57,23.55
			v72.17c0,3.76-1.19,6.87-3.58,9.34c-2.39,2.48-5.55,3.71-9.47,3.71c-3.76,0-6.87-1.24-9.34-3.71c-2.48-2.47-3.71-5.59-3.71-9.34
			V176.09c0-3.92,1.24-7.08,3.71-9.47c2.47-2.39,5.59-3.58,9.34-3.58c3.75,0,6.82,1.15,9.21,3.45c2.39,2.31,3.67,5.34,3.84,9.08
			c4.44-4.44,9.73-7.89,15.87-10.36c6.14-2.47,12.8-3.71,19.96-3.71c8.7,0,16.51,1.75,23.42,5.25c6.91,3.5,12.58,8.49,17.02,14.97
			c5.12-6.31,11.52-11.26,19.19-14.85c7.68-3.58,16.21-5.37,25.59-5.37C774.86,161.5,786.85,166.37,795.98,176.09z"/>
		<path class="st0" d="M972.7,238.67c-2.22,2.13-5.04,3.2-8.45,3.2H867c1.87,11.94,7.29,21.58,16.25,28.92
			c8.96,7.34,19.92,11.01,32.89,11.01c5.12,0,10.45-0.94,16-2.82c5.54-1.88,10.11-4.18,13.69-6.91c2.39-1.88,5.2-2.82,8.45-2.82
			c3.24,0,5.8,0.86,7.68,2.56c3.07,2.56,4.61,5.46,4.61,8.7c0,3.07-1.37,5.63-4.1,7.68c-5.8,4.61-13.01,8.36-21.63,11.26
			c-8.62,2.9-16.85,4.35-24.7,4.35c-13.99,0-26.53-3.03-37.62-9.08c-11.09-6.05-19.75-14.46-25.98-25.21
			c-6.23-10.75-9.34-22.95-9.34-36.6c0-13.65,2.94-25.89,8.83-36.73c5.89-10.83,14.08-19.28,24.57-25.34
			c10.49-6.05,22.4-9.08,35.7-9.08c13.14,0,24.48,2.9,34.04,8.7c9.55,5.8,16.89,13.91,22.01,24.32c5.12,10.41,7.68,22.35,7.68,35.83
			C976.03,233.85,974.91,236.54,972.7,238.67z M881.97,194.01c-7.77,6.83-12.67,15.96-14.72,27.38h85.23
			c-1.53-11.43-5.8-20.56-12.8-27.38c-7-6.82-16.12-10.24-27.38-10.24C899.84,183.77,889.73,187.19,881.97,194.01z"/>
		<path class="st0" d="M1096.57,165.34c5.12,2.73,7.68,6.14,7.68,10.24c0,1.2-0.09,2.05-0.26,2.56c-1.53,5.46-4.95,8.19-10.24,8.19
			c-0.86,0-2.13-0.17-3.84-0.51c-6.83-1.19-12.37-1.79-16.64-1.79c-12.28,0-22.18,2.82-29.69,8.44
			c-7.51,5.63-11.26,13.23-11.26,22.78v74.73c0,4.1-1.07,7.25-3.2,9.47c-2.14,2.22-5.34,3.33-9.6,3.33c-4.09,0-7.25-1.06-9.47-3.2
			c-2.22-2.13-3.33-5.33-3.33-9.6v-114.4c0-4.09,1.11-7.25,3.33-9.47c2.21-2.21,5.37-3.33,9.47-3.33c8.53,0,12.8,4.27,12.8,12.79
			v4.86c5.12-5.97,11.43-10.66,18.94-14.08c7.51-3.41,15.52-5.12,24.06-5.12C1084.37,161.25,1091.45,162.62,1096.57,165.34z"/>
		<path class="st0" d="M1217.5,171.1c10.66,6.23,19.11,14.76,25.34,25.59c6.23,10.84,9.34,22.91,9.34,36.22v57.07
			c0,3.76-1.24,6.87-3.71,9.34c-2.47,2.48-5.59,3.71-9.34,3.71c-3.75,0-6.87-1.24-9.34-3.71c-2.47-2.47-3.71-5.59-3.71-9.34v-9.47
			c-5.97,7.34-13.23,13.05-21.75,17.15c-8.54,4.09-17.75,6.14-27.64,6.14c-12.29,0-23.42-3.07-33.4-9.21
			c-9.98-6.14-17.83-14.63-23.55-25.47c-5.72-10.83-8.57-22.9-8.57-36.21c0-13.31,3.07-25.38,9.21-36.22
			c6.14-10.83,14.63-19.36,25.46-25.59c10.83-6.23,22.82-9.34,35.96-9.34C1194.93,161.76,1206.83,164.88,1217.5,171.1z
			 M1204.96,274.5c6.91-4.18,12.32-9.89,16.25-17.15c3.92-7.25,5.89-15.4,5.89-24.44c0-9.04-1.96-17.23-5.89-24.57
			c-3.93-7.33-9.34-13.09-16.25-17.28c-6.91-4.18-14.63-6.27-23.16-6.27c-8.53,0-16.25,2.09-23.16,6.27
			c-6.91,4.18-12.37,9.94-16.38,17.28c-4.01,7.34-6.01,15.53-6.01,24.57c0,9.05,2,17.19,6.01,24.44
			c4.01,7.25,9.47,12.97,16.38,17.15c6.91,4.18,14.63,6.27,23.16,6.27C1190.33,280.77,1198.05,278.68,1204.96,274.5z"/>
		<path class="st0" d="M1286.98,106.48c2.39-2.39,5.46-3.58,9.21-3.58c3.75,0,6.82,1.2,9.21,3.58c2.39,2.39,3.58,5.46,3.58,9.21
			v139.74c0,6.31,1.19,11.52,3.58,15.61c2.39,4.09,5.46,6.14,9.21,6.14h6.4c3.41,0,6.18,1.2,8.32,3.58c2.13,2.39,3.2,5.46,3.2,9.21
			c0,3.76-1.62,6.83-4.86,9.21c-3.24,2.39-7.42,3.58-12.54,3.58h-0.51c-7.34,0-13.95-2-19.83-6.02
			c-5.89-4.01-10.45-9.64-13.69-16.89c-3.24-7.25-4.86-15.4-4.86-24.44V115.69C1283.4,111.94,1284.59,108.87,1286.98,106.48z"/>
		<path class="st0" d="M1485.33,106.48c2.39,2.39,3.58,5.55,3.58,9.47v116.7c0,13.31-3.11,25.38-9.34,36.22
			c-6.23,10.84-14.68,19.37-25.34,25.59c-10.67,6.23-22.57,9.34-35.7,9.34c-13.14,0-25.12-3.11-35.96-9.34
			c-10.84-6.23-19.32-14.76-25.46-25.59c-6.14-10.83-9.21-22.91-9.21-36.22s2.86-25.38,8.57-36.22
			c5.71-10.83,13.56-19.32,23.55-25.46c9.98-6.14,21.11-9.21,33.4-9.21c9.89,0,19.11,2.05,27.64,6.14
			c8.53,4.09,15.78,9.81,21.75,17.15v-69.1c0-3.92,1.24-7.08,3.71-9.47c2.47-2.39,5.59-3.58,9.34-3.58
			C1479.78,102.89,1482.94,104.09,1485.33,106.48z M1441.69,274.5c6.91-4.18,12.32-9.94,16.25-17.28
			c3.92-7.33,5.89-15.52,5.89-24.57c0-9.04-1.96-17.19-5.89-24.44c-3.93-7.25-9.34-12.96-16.25-17.15
			c-6.91-4.18-14.63-6.27-23.16-6.27c-8.53,0-16.25,2.09-23.16,6.27c-6.91,4.18-12.37,9.9-16.38,17.15
			c-4.01,7.25-6.01,15.4-6.01,24.44c0,9.05,2,17.24,6.01,24.57c4.01,7.34,9.47,13.1,16.38,17.28c6.91,4.18,14.63,6.27,23.16,6.27
			C1427.06,280.77,1434.78,278.68,1441.69,274.5z"/>
		<path class="st0" d="M1570.43,147.68c2.64-2.56,5.67-3.84,9.08-3.84c3.75,0,6.87,1.24,9.34,3.71c2.47,2.48,3.71,5.59,3.71,9.34
			v34.3h34.3c3.58,0,6.69,1.28,9.34,3.84c2.64,2.56,3.97,5.72,3.97,9.47c0,3.58-1.33,6.65-3.97,9.21c-2.65,2.56-5.76,3.84-9.34,3.84
			h-34.3v34.29c0,3.76-1.24,6.87-3.71,9.34c-2.47,2.48-5.59,3.71-9.34,3.71c-3.76,0-6.87-1.24-9.34-3.71
			c-2.47-2.47-3.71-5.59-3.71-9.34v-34.29h-34.3c-3.76,0-6.87-1.28-9.34-3.84c-2.48-2.56-3.71-5.71-3.71-9.47
			c0-3.75,1.24-6.87,3.71-9.34c2.47-2.47,5.59-3.71,9.34-3.71h34.3v-34.3C1566.46,153.31,1567.78,150.24,1570.43,147.68z"/>
	</g>
	<g>
		<polygon class="st1" points="312.37,54.45 126.69,54.45 174.13,172.69 		"/>
		<polygon class="st2" points="270.95,258.95 312.37,54.45 174.13,172.69 		"/>
		<polygon class="st3" points="126.69,54.45 33.85,215.26 174.13,172.69 		"/>
		<polygon class="st0" points="405.21,215.26 312.37,54.45 270.95,258.95 		"/>
		<polygon class="st4" points="126.69,376.06 312.37,376.06 270.95,258.95 		"/>
		<polygon class="st5" points="33.85,215.26 126.69,376.06 174.13,172.69 		"/>
		<polygon class="st6" points="270.95,258.95 312.37,376.06 405.21,215.26 		"/>
		<polygon class="st7" points="174.13,172.69 126.69,376.06 270.95,258.95 		"/>
	</g>
</g>
</svg>
